<svg xmlns="http://www.w3.org/2000/svg" viewBox="0 0 64 64" fill="none" role="img" aria-label="Bookly">
  <!-- Vibrant purple squircle -->
  <rect width="64" height="64" rx="16" fill="#7B3CFF"/>

  <!-- Bold black "B" with rounded pill counters -->
  <path
    fill="#000000"
    fill-rule="evenodd"
    d="
      M 17 15
      H 36
      C 42.5 15 46.5 19 46.5 25.5
      C 46.5 29.5 44.5 32.5 41 34
      C 45 35.5 47.5 39 47.5 44
      C 47.5 49.5 43.5 50 37.5 50
      H 17
      Z
      M 26.5 20.5
      H 34
      C 36.5 20.5 38.5 22.3 38.5 24.8
      C 38.5 27.3 36.5 29 34 29
      H 26.5
      C 24.3 29 22.5 27.2 22.5 25
      C 22.5 22.8 24.3 21 26.5 21
      Z
      M 27 34.5
      H 35.5
      C 38.5 34.5 41 36.5 41 39.5
      C 41 42.5 38.5 44.5 35.5 44.5
      H 27
      C 24.5 44.5 22.5 42.5 22.5 39.5
      C 22.5 36.5 24.5 34.5 27 34.5
      Z
    "
  />
</svg>
